<svg width="512" height="512" viewBox="0 0 512 512" fill="none" xmlns="http://www.w3.org/2000/svg">
<path d="M288 152V120L240 96L221.603 151.191L288 152Z" fill="#FFB401"/>
<path d="M160 56L240 96L221.603 151.191L152 112V80L160 56Z" fill="#D1E4FF"/>
<path d="M408 296L336 176L152 80V112L272 208V296H408Z" fill="#FFC431"/>
<path d="M373.714 304L328 240H248V304H373.714Z" fill="#91C0FF"/>
<path d="M384 304H248V352L264 376H384V304Z" fill="#FFB401"/>
<path d="M93.887 96H48L24 192L54.408 212.272L93.887 96Z" fill="#D1E4FF"/>
<path d="M71.518 161.88L33.882 152.471L24 192L54.408 212.272L71.518 161.88Z" fill="#FFB401"/>
<path d="M152 80L168 48H144L80 96L40 240H64L152 112V80Z" fill="#FFD873"/>
<path d="M64 240L96 288V312L128 336V352H60.5875C55.7828 352 51.0251 351.054 46.5861 349.215C42.1471 347.376 38.1137 344.681 34.7162 341.284C31.3188 337.886 28.6238 333.853 26.7851 329.414C24.9464 324.975 24 320.217 24 315.412V272L40 240H64Z" fill="#FFC431"/>
<path d="M368 296H488V400H296V328L368 296Z" fill="#FFC431"/>
<path d="M488 368H296V400H488V368Z" fill="#FFB401"/>
<path d="M224 400H416C433.673 400 448 414.327 448 432C448 449.673 433.673 464 416 464H224C206.327 464 192 449.673 192 432C192 414.327 206.327 400 224 400Z" fill="#415769"/>
<path d="M16.8447 268.422L32.499 237.114L39.4912 211.942L19.5625 198.656C18.1895 197.741 17.1331 196.424 16.5382 194.885C15.9432 193.346 15.8388 191.66 16.2392 190.06L40.2392 94.0595C40.6718 92.3287 41.6706 90.7922 43.0768 89.6942C44.483 88.5963 46.2159 87.9999 48 88H77.3337L139.2 41.6001C140.585 40.5616 142.269 40.0001 144 40H168C169.364 39.9998 170.705 40.3483 171.896 41.0123C173.087 41.6763 174.089 42.6338 174.806 43.7939C175.523 44.9539 175.931 46.278 175.992 47.6403C176.053 49.0026 175.765 50.358 175.155 51.5776L173.933 54.0222L243.578 88.8447L291.578 112.845C292.907 113.509 294.024 114.53 294.805 115.794C295.586 117.058 296 118.514 296 120V146.107L339.7 168.907C341.008 169.589 342.101 170.62 342.86 171.884L412.53 288H488C490.122 288 492.157 288.843 493.657 290.343C495.157 291.843 496 293.878 496 296V400C496 402.122 495.157 404.157 493.657 405.657C492.157 407.157 490.122 408 488 408H447.978C452.443 413.939 455.164 421.005 455.836 428.404C456.508 435.804 455.105 443.244 451.784 449.891C448.463 456.537 443.356 462.127 437.035 466.032C430.714 469.938 423.43 472.004 416 472H224C213.391 472 203.217 467.786 195.716 460.284C188.214 452.783 184 442.609 184 432C184 421.391 188.214 411.217 195.716 403.716C203.217 396.214 213.391 392 224 392H288V384H264C262.683 384 261.386 383.675 260.225 383.053C259.064 382.432 258.074 381.533 257.344 380.438L241.344 356.438C240.468 355.123 240 353.579 240 352V240C240 237.878 240.843 235.843 242.343 234.343C243.843 232.843 245.878 232 248 232H264V211.845L153.719 123.621L73.6609 240.069L102.656 283.562C103.532 284.877 104 286.421 104 288V308L132.8 329.6C133.793 330.345 134.6 331.311 135.155 332.422C135.711 333.533 136 334.758 136 336V352C136 354.122 135.157 356.157 133.657 357.657C132.157 359.157 130.122 360 128 360H60.5879C48.7666 359.987 37.4333 355.285 29.0744 346.926C20.7154 338.567 16.0134 327.234 16 315.413V272C15.9999 270.758 16.2891 269.533 16.8447 268.422ZM43.998 195.717L52.4321 165.354L39.7033 162.172L33.1288 188.471L43.998 195.717ZM43.5839 146.65L56.7158 149.933L69.4751 104H54.2461L43.5839 146.65ZM146.667 56L86.9795 100.766L50.5254 232H59.792L144 109.515V80C144.004 78.7592 144.298 77.5365 144.858 76.4291L144.845 76.4224L155.056 56H146.667ZM162.672 76.5446L226.885 110.047L230.216 100.052L166.778 68.3331L162.672 76.5446ZM280 124.944L244.673 107.281L241.252 117.543L280 137.759V124.944ZM369.697 304L304 333.199V360H480V304H369.697ZM348.302 296L355.791 292.672L323.883 248H312V296H348.302ZM200 432C200.007 438.363 202.538 444.463 207.037 448.963C211.537 453.462 217.637 455.993 224 456H416C422.365 456 428.47 453.471 432.971 448.971C437.471 444.47 440 438.365 440 432C440 425.635 437.471 419.53 432.971 415.029C428.47 410.529 422.365 408 416 408H224C217.637 408.007 211.537 410.538 207.037 415.037C202.538 419.537 200.007 425.637 200 432ZM480 392V376H304V392H480ZM268.281 368H288V328C288 326.453 288.449 324.938 289.292 323.641C290.135 322.343 291.337 321.318 292.751 320.689L312.302 312H256V349.578L268.281 368ZM256 296H296V248H256V296ZM160 108.155L276.998 201.753C277.935 202.502 278.691 203.453 279.211 204.535C279.73 205.616 280 206.8 280 208V232H328C329.273 232 330.528 232.304 331.661 232.887C332.793 233.469 333.77 234.314 334.51 235.35L372.117 288H393.87L330.3 182.05L160 93.1973V108.155ZM32 315.413C32.0086 322.992 35.0233 330.258 40.3827 335.618C45.7421 340.977 53.0086 343.992 60.5879 344H120V340L91.2002 318.4C90.2066 317.655 89.4001 316.689 88.8446 315.578C88.2891 314.467 88 313.242 88 312V290.422L59.7188 248H44.9441L32 273.889V315.413Z" fill="black"/>
<path d="M392 424H248V440H392V424Z" fill="black"/>
<path d="M416 440C411.582 440 408 436.418 408 432C408 427.582 411.582 424 416 424C420.418 424 424 427.582 424 432C424 436.418 420.418 440 416 440Z" fill="black"/>
<path d="M224 440C219.582 440 216 436.418 216 432C216 427.582 219.582 424 224 424C228.418 424 232 427.582 232 432C232 436.418 228.418 440 224 440Z" fill="black"/>
</svg>
